<svg width="600" height="600" xmlns="http://www.w3.org/2000/svg">
 <style type="text/css">.st0{fill-rule:evenodd;clip-rule:evenodd;fill:#D52E26;}
	.st1{fill-rule:evenodd;clip-rule:evenodd;fill:#2C3D78;}
	.st2{fill-rule:evenodd;clip-rule:evenodd;fill:#2B3D78;}
	.st3{fill-rule:evenodd;clip-rule:evenodd;fill:#DA251D;}
	.st4{fill:#2D3D78;}</style>

 <g>
  <title>background</title>
  <rect fill="none" id="canvas_background" height="602" width="602" y="-1" x="-1"/>
 </g>
 <g>
  <title>Layer 1</title>
  <g stroke="null" id="Capa_x0020_1">
   <g stroke="null" id="_135379536">
    <g stroke="null" id="g11">
     <path stroke="null" d="m308.400011,184.499988c2.9,-1.2 2.2,-5.9 0.4,-6.8l-54.4,-35.4c-2.2,-2.1 -4.9,0.3 -4.6,2.3l3.7,14.7c0.4,0.9 0.6,2.5 -0.9,2.5c-68.7,2.4 -146.3,23.2 -191.4,79.9c-57.3,72 -8.6,141.3 66.9,160.7c1.6,0.6 3.5,-1.9 1.8,-3.5c-13.5,-5.9 -24.7,-13 -33.6,-21c-18.7,-16.9 -29,-40.5 -25.1,-65.7c5.6,-35.7 38.5,-71.9 95.7,-92.8c25.1,-9.1 55,-17.7 81.4,-20.5c0.9,-0.1 2,0.4 1.9,1.6l-3.6,17.9c0,1.1 1,2.3 2.5,1.6l59.3,-35.5z" class="st0" id="_135381000"/>
     <path stroke="null" d="m291.400011,415.899988c-2.9,1.2 -3.3,5.6 0.2,7.2l54,34.6c2.2,2.1 4.9,-0.3 4.6,-2.3l-3.7,-14.7c-0.4,-0.9 -0.6,-2.5 0.9,-2.5c68.8,-2.3 146.4,-23.1 191.4,-79.8c57.3,-72 8.6,-141.3 -66.9,-160.7c-1.6,-0.6 -3.5,1.9 -1.8,3.5c13.5,5.9 24.7,13 33.6,21c18.7,16.9 29,40.5 25.1,65.7c-5.6,35.7 -38.5,71.9 -95.7,92.8c-25.1,9.1 -55,17.7 -81.4,20.5c-0.9,0.1 -2,-0.4 -1.9,-1.6l3.6,-17.9c0,-1.1 -1,-2.3 -2.5,-1.6l-59.5,35.8z" class="st1" id="_135380568"/>
    </g>
    <g stroke="null" id="g15">
     <path stroke="null" d="m408.300011,308.499988c-4.7,3.3 -7.1,4.9 -11.8,7.6c-5,3 -8.2,4.4 -9.4,4.4c-0.1,0 -0.3,-0.1 -0.3,-0.1s-0.1,-0.3 -0.1,-0.5c0,-0.5 0.3,-1.5 0.5,-2.5c0.3,-1 0.6,-2.2 1.1,-3.3l7.6,-18.5l-15,0c-3.8,8.5 -8.4,15.4 -13.3,20.2c-4.9,4.8 -9.8,7.2 -14.1,7.2c-1.5,0 -2.9,-0.9 -3.9,-2.4c-0.9,-1.5 -1.4,-3.7 -1.4,-6.2c0,-8 3.4,-15 10.2,-20.6c6.7,-5.6 15.1,-8.4 24.9,-8.4c2.3,0 4.8,0.4 7.2,1c7.5,1.1 11.4,-10.3 2.9,-11.9c-2.3,-0.4 -4.1,-0.8 -5.3,-0.9c-1.8,-0.3 -3.6,-0.4 -5.1,-0.4c-14.2,0 -26.2,4.2 -36.2,12.6c-6.4,5.4 -10.1,12.3 -13.2,18.7c-5.4,4.3 -9.8,7.5 -14.9,10.5c-5.1,3 -8.2,4.6 -9.3,4.6c-0.3,0 -0.5,-0.3 -0.6,-0.5c-0.1,-0.3 -0.1,-0.7 -0.1,-1.2c0,0 0.2,-0.6 0.5,-1.3c0.3,-0.7 0.9,-1.9 1.5,-3.4l12.1,-25.4c0.3,-0.6 0.6,-1.6 1.1,-2.8c1.5,-3.3 2.4,-5.7 2.4,-6.9c0,-1.3 -0.8,-2.7 -2.2,-3.7c-1.3,-1 -2.9,-1.5 -4.7,-1.5c-2.7,0 -6,1.1 -9.8,3.2c-3.7,2 -7.7,5.2 -11.9,9l-19.7,17.2l6,-14.6c0.1,-0.3 0.4,-0.9 0.6,-1.5c1.5,-3.8 2.3,-6.5 2.3,-7.7c0,-1.5 -0.6,-3 -1.9,-4.1c-1.1,-1 -2.7,-1.5 -4.3,-1.5c-2.5,0 -5.8,1.1 -9.4,3.2c-3.6,2 -7.7,5.1 -12.3,9l-20.2,17.1c3.2,-6.7 6.4,-13.3 9.6,-20c4.8,-9.9 -12.1,-12.2 -15.7,-0.1l-1.2,2.7c-0.3,0.8 -2.8,3.3 -7.1,7.2c-4.3,3.9 -6.9,6.4 -13.6,11.9c-5.1,4.3 -10.3,8.2 -15.4,11.2c-5,3 -8.1,4.6 -9.1,4.6c-0.1,0 -0.4,-0.3 -0.5,-0.5c0,-0.3 -0.1,-0.8 -0.1,-1.3l2.2,-4.7c5.7,-12.7 8.4,-18.9 14.1,-31.7c3,-8.7 -11.5,-11.1 -15.4,0l-1.8,3.4c-0.3,0.8 -2.8,3.2 -7.1,7.1c-4.3,3.9 -10,8.8 -16.6,14.2c-3,2.8 -9.7,7.4 -16.2,11.2c-8.5,4.8 -16.3,6.6 -19.8,6.3c-3.3,-0.3 -6.1,-1 -7.9,-3c-1.8,-1.9 -2.8,-4.8 -2.8,-8.5c0,-6.6 2.4,-13.1 7.2,-19c4.7,-6 9.4,-9 13.8,-9c1.8,0 3.2,0.5 4.1,1.3c0.8,0.8 1.6,2.1 1.3,3.6c-3.1,13.6 13.5,11.8 15.6,0.8c0.3,-1.7 0.6,-3.3 0.6,-4.8c0,-3.7 -1.5,-6.7 -4.3,-8.8c-2.8,-2 -6.9,-3.2 -11.9,-3.2c-11.7,0 -22.1,4.2 -30.7,12.3c-8.6,8.1 -12.9,18 -12.9,29.3c0,7.7 2,13.7 6.1,17.5c3.9,3.8 10,5.8 17.9,5.8c6.1,0 12.6,-1.4 19,-4.2c6.5,-2.8 12.2,-6.1 21,-12.7l4.3,-3.2c1.5,-1.1 3.2,-2.5 4.8,-4.1l-2.5,5.8c-0.8,2.2 -1.4,4.4 -1.9,6.5c-0.4,2 -0.6,3.9 -0.6,5.2c0,2 0.8,3.7 2.2,4.8c1.3,1.1 3.3,1.8 5.8,1.8c4.2,0 9.5,-1.7 15.9,-4.8c6.2,-3.1 15.2,-9.2 23.4,-15.4c1.5,-1.1 3.1,-2.5 4.9,-3.9l-6.2,12.8c-0.4,1 -0.8,2.2 -1,2.9c-0.1,0.8 -0.3,1.6 -0.3,2.4c0,1.6 0.5,3.2 1.5,4.4c0.9,1.1 2.2,1.8 3.4,1.8c3.7,0 11,-5.5 21.7,-16.2c10.7,-10.7 19.9,-19.4 27.7,-25.8l-10,22.1l-0.1,0.1c-3,7 -4.6,11.4 -4.6,13.1c0,1.5 0.6,3 1.6,4.2c1,1 2.5,1.6 4.1,1.6c2.4,0 8.8,-5.2 18.9,-15.4c10,-10.2 19.8,-18.8 29.2,-25.8l-11,24.4c-1.3,2.9 -2.2,5.2 -2.5,6.7c-0.4,1.5 -0.6,2.9 -0.6,4.2c0,1.9 0.8,3.6 2.3,4.7c1.5,1 3.6,1.6 6.1,1.6c4.1,0 9.3,-1.7 15.6,-4.8c6.2,-3.1 11.2,-6.5 19.3,-12.7c0.5,5.3 2,9.5 4.5,12.4c3,3.6 7.6,5.5 13.5,5.5c3,0 6.2,-0.6 9.1,-1.9c2.9,-1.3 6.5,-3.6 10.5,-6.7l0,1c0,2.8 0.5,4.9 1.4,6c0.9,1 2.5,1.6 4.8,1.6c3.3,0 8.2,-1.7 14.6,-4.8c5.9,-2.9 10.3,-5.5 17.5,-10.7l0,0.1l4.3,-3.2c1.5,-1.1 3.2,-1.8 4.8,-3.3l-2.5,5.8c-0.8,2.2 -1.4,4.4 -1.9,6.5c-0.4,2 -0.6,3.9 -0.6,5.2c0,2 0.8,3.7 2.2,4.8c1.3,1.1 3.3,1.8 5.8,1.8c4.2,0 9.5,-1.7 15.9,-4.8c13.5,-6.3 25.9,-14.6 38.9,-27.5c1.6,-1.6 3.6,-3.2 4.7,-4.9c1.4,0.6 4.9,2.2 6.7,2.6c2.4,0.5 4.8,0.4 7,0c2.1,-0.4 4.7,-1.5 7.5,-3.1c7.1,-3.1 4.4,-15.6 -5,-11.3c-2.8,1.3 -5.3,1 -8,-0.3c0.8,-1.9 1.4,-3.9 1.7,-5.6c0.4,-2.1 0.1,-4 -0.6,-5.4c-0.8,-1.4 -2.2,-2.4 -4,-2.7c-4.1,-0.8 -7.8,0.7 -11.3,6.9c-7.1,12.5 -15.8,25.3 -31.1,33.4c-5,3 -8.1,4.6 -9.1,4.6c-0.1,0 -0.4,-0.3 -0.5,-0.5c0,-0.3 -0.1,-0.8 -0.1,-1.3l2.2,-4.7c5.7,-12.7 10.4,-22.5 16.1,-35.2c3.2,-8.9 -11,-11.4 -14.6,-1.7l-4.5,8.7c-0.3,0.8 -2.8,3.2 -7.1,7.1c-4.3,3.9 -9.9,8.7 -16.5,14.1l-0.6,-0.1l0,0z" class="st2" id="_135380328"/>
     <circle stroke="null" r="9.3" cy="254.699988" cx="204.000011" class="st3" id="_135379704"/>
    </g>
   </g>
  </g>
 </g>
</svg>